<svg xmlns="http://www.w3.org/2000/svg" viewBox="0 0 800 600" width="800" height="600"><rect width="800" height="600" fill="#F0EEE8"/><ellipse cx="182" cy="43" rx="6" ry="5" fill="#D9BF98" transform="rotate(162 400 300)"/><ellipse cx="44" cy="441" rx="4" ry="4" fill="#D9BF98" transform="rotate(179 400 300)"/><ellipse cx="322" cy="430" rx="9" ry="5" fill="#D9BF98" transform="rotate(4 400 300)"/><ellipse cx="250" cy="223" rx="8" ry="4" fill="#E9A98B" transform="rotate(108 400 300)"/><ellipse cx="229" cy="436" rx="5" ry="2" fill="#A9C2A0" transform="rotate(95 400 300)"/><ellipse cx="572" cy="268" rx="4" ry="5" fill="#E9A98B" transform="rotate(169 400 300)"/><ellipse cx="542" cy="385" rx="9" ry="2" fill="#A9C2A0" transform="rotate(144 400 300)"/><ellipse cx="544" cy="105" rx="8" ry="2" fill="#D9BF98" transform="rotate(36 400 300)"/><ellipse cx="241" cy="398" rx="4" ry="2" fill="#E9A98B" transform="rotate(168 400 300)"/><ellipse cx="384" cy="183" rx="4" ry="4" fill="#E9A98B" transform="rotate(6 400 300)"/><ellipse cx="117" cy="493" rx="9" ry="4" fill="#A9C2A0" transform="rotate(22 400 300)"/><ellipse cx="37" cy="577" rx="8" ry="3" fill="#E9A98B" transform="rotate(141 400 300)"/><ellipse cx="766" cy="102" rx="8" ry="2" fill="#A9C2A0" transform="rotate(144 400 300)"/><ellipse cx="184" cy="79" rx="5" ry="3" fill="#9DB1CF" transform="rotate(116 400 300)"/><ellipse cx="630" cy="403" rx="6" ry="4" fill="#D9BF98" transform="rotate(89 400 300)"/><ellipse cx="569" cy="428" rx="4" ry="5" fill="#9DB1CF" transform="rotate(105 400 300)"/><ellipse cx="765" cy="164" rx="7" ry="5" fill="#9DB1CF" transform="rotate(164 400 300)"/><ellipse cx="410" cy="152" rx="5" ry="2" fill="#D9BF98" transform="rotate(123 400 300)"/><ellipse cx="715" cy="529" rx="7" ry="3" fill="#9DB1CF" transform="rotate(68 400 300)"/><ellipse cx="770" cy="203" rx="5" ry="4" fill="#9DB1CF" transform="rotate(176 400 300)"/><ellipse cx="550" cy="302" rx="9" ry="5" fill="#A9C2A0" transform="rotate(55 400 300)"/><ellipse cx="314" cy="23" rx="6" ry="5" fill="#D9BF98" transform="rotate(51 400 300)"/><ellipse cx="176" cy="583" rx="6" ry="3" fill="#A9C2A0" transform="rotate(123 400 300)"/><ellipse cx="792" cy="147" rx="7" ry="5" fill="#9DB1CF" transform="rotate(119 400 300)"/><ellipse cx="594" cy="570" rx="4" ry="5" fill="#E9A98B" transform="rotate(102 400 300)"/><ellipse cx="751" cy="46" rx="7" ry="3" fill="#9DB1CF" transform="rotate(165 400 300)"/><ellipse cx="734" cy="70" rx="5" ry="4" fill="#9DB1CF" transform="rotate(48 400 300)"/><ellipse cx="794" cy="264" rx="5" ry="3" fill="#E9A98B" transform="rotate(65 400 300)"/><ellipse cx="173" cy="46" rx="6" ry="3" fill="#D9BF98" transform="rotate(23 400 300)"/><ellipse cx="746" cy="87" rx="4" ry="2" fill="#A9C2A0" transform="rotate(74 400 300)"/><ellipse cx="36" cy="365" rx="7" ry="4" fill="#E9A98B" transform="rotate(7 400 300)"/><ellipse cx="342" cy="339" rx="7" ry="5" fill="#D9BF98" transform="rotate(19 400 300)"/><ellipse cx="215" cy="599" rx="9" ry="5" fill="#D9BF98" transform="rotate(32 400 300)"/><ellipse cx="557" cy="326" rx="4" ry="4" fill="#E9A98B" transform="rotate(170 400 300)"/><ellipse cx="442" cy="115" rx="7" ry="4" fill="#E9A98B" transform="rotate(135 400 300)"/><ellipse cx="717" cy="383" rx="9" ry="4" fill="#D9BF98" transform="rotate(75 400 300)"/><ellipse cx="678" cy="271" rx="4" ry="4" fill="#E9A98B" transform="rotate(170 400 300)"/><ellipse cx="505" cy="520" rx="6" ry="2" fill="#A9C2A0" transform="rotate(173 400 300)"/><ellipse cx="745" cy="579" rx="9" ry="3" fill="#9DB1CF" transform="rotate(45 400 300)"/><ellipse cx="379" cy="465" rx="4" ry="2" fill="#9DB1CF" transform="rotate(84 400 300)"/><ellipse cx="660" cy="430" rx="8" ry="4" fill="#9DB1CF" transform="rotate(117 400 300)"/><ellipse cx="493" cy="319" rx="5" ry="2" fill="#E9A98B" transform="rotate(46 400 300)"/><ellipse cx="772" cy="567" rx="8" ry="5" fill="#A9C2A0" transform="rotate(25 400 300)"/><ellipse cx="272" cy="277" rx="7" ry="2" fill="#9DB1CF" transform="rotate(10 400 300)"/><ellipse cx="490" cy="516" rx="6" ry="3" fill="#A9C2A0" transform="rotate(85 400 300)"/><ellipse cx="413" cy="458" rx="8" ry="2" fill="#A9C2A0" transform="rotate(127 400 300)"/><ellipse cx="114" cy="155" rx="6" ry="2" fill="#E9A98B" transform="rotate(144 400 300)"/><ellipse cx="797" cy="114" rx="5" ry="3" fill="#D9BF98" transform="rotate(171 400 300)"/><ellipse cx="761" cy="400" rx="9" ry="3" fill="#9DB1CF" transform="rotate(101 400 300)"/><ellipse cx="198" cy="557" rx="8" ry="3" fill="#9DB1CF" transform="rotate(51 400 300)"/><ellipse cx="256" cy="378" rx="6" ry="2" fill="#D9BF98" transform="rotate(104 400 300)"/><ellipse cx="392" cy="323" rx="8" ry="4" fill="#D9BF98" transform="rotate(135 400 300)"/><ellipse cx="703" cy="306" rx="9" ry="5" fill="#E9A98B" transform="rotate(153 400 300)"/><ellipse cx="195" cy="2" rx="4" ry="3" fill="#D9BF98" transform="rotate(44 400 300)"/><ellipse cx="536" cy="471" rx="5" ry="3" fill="#9DB1CF" transform="rotate(9 400 300)"/><ellipse cx="512" cy="454" rx="4" ry="4" fill="#9DB1CF" transform="rotate(34 400 300)"/><ellipse cx="478" cy="90" rx="8" ry="2" fill="#E9A98B" transform="rotate(92 400 300)"/><ellipse cx="633" cy="239" rx="8" ry="2" fill="#D9BF98" transform="rotate(137 400 300)"/><ellipse cx="19" cy="347" rx="6" ry="4" fill="#A9C2A0" transform="rotate(177 400 300)"/><ellipse cx="710" cy="137" rx="4" ry="2" fill="#E9A98B" transform="rotate(87 400 300)"/><ellipse cx="210" cy="64" rx="5" ry="5" fill="#9DB1CF" transform="rotate(124 400 300)"/><ellipse cx="323" cy="111" rx="4" ry="5" fill="#E9A98B" transform="rotate(51 400 300)"/><ellipse cx="722" cy="164" rx="7" ry="5" fill="#D9BF98" transform="rotate(179 400 300)"/><ellipse cx="69" cy="550" rx="7" ry="3" fill="#D9BF98" transform="rotate(77 400 300)"/><ellipse cx="23" cy="475" rx="7" ry="5" fill="#D9BF98" transform="rotate(46 400 300)"/><ellipse cx="466" cy="38" rx="9" ry="4" fill="#A9C2A0" transform="rotate(94 400 300)"/><ellipse cx="458" cy="542" rx="6" ry="5" fill="#9DB1CF" transform="rotate(0 400 300)"/><ellipse cx="214" cy="264" rx="6" ry="3" fill="#D9BF98" transform="rotate(136 400 300)"/><ellipse cx="199" cy="162" rx="5" ry="2" fill="#9DB1CF" transform="rotate(149 400 300)"/><ellipse cx="413" cy="515" rx="5" ry="2" fill="#9DB1CF" transform="rotate(28 400 300)"/><ellipse cx="623" cy="172" rx="7" ry="5" fill="#9DB1CF" transform="rotate(15 400 300)"/><ellipse cx="22" cy="412" rx="7" ry="4" fill="#D9BF98" transform="rotate(8 400 300)"/><ellipse cx="720" cy="52" rx="5" ry="5" fill="#E9A98B" transform="rotate(101 400 300)"/><ellipse cx="505" cy="27" rx="5" ry="3" fill="#E9A98B" transform="rotate(99 400 300)"/><ellipse cx="485" cy="195" rx="5" ry="4" fill="#E9A98B" transform="rotate(88 400 300)"/><ellipse cx="126" cy="53" rx="9" ry="4" fill="#A9C2A0" transform="rotate(119 400 300)"/><ellipse cx="307" cy="500" rx="5" ry="4" fill="#E9A98B" transform="rotate(86 400 300)"/><ellipse cx="644" cy="353" rx="6" ry="2" fill="#E9A98B" transform="rotate(174 400 300)"/><ellipse cx="445" cy="91" rx="8" ry="2" fill="#E9A98B" transform="rotate(7 400 300)"/><ellipse cx="697" cy="92" rx="4" ry="3" fill="#E9A98B" transform="rotate(123 400 300)"/><ellipse cx="55" cy="193" rx="9" ry="4" fill="#9DB1CF" transform="rotate(122 400 300)"/><ellipse cx="348" cy="490" rx="6" ry="2" fill="#D9BF98" transform="rotate(78 400 300)"/><ellipse cx="769" cy="403" rx="4" ry="4" fill="#9DB1CF" transform="rotate(105 400 300)"/><ellipse cx="117" cy="519" rx="7" ry="4" fill="#D9BF98" transform="rotate(44 400 300)"/><ellipse cx="757" cy="395" rx="8" ry="4" fill="#9DB1CF" transform="rotate(92 400 300)"/><ellipse cx="424" cy="448" rx="5" ry="5" fill="#D9BF98" transform="rotate(88 400 300)"/><ellipse cx="275" cy="173" rx="8" ry="5" fill="#D9BF98" transform="rotate(10 400 300)"/><ellipse cx="157" cy="175" rx="9" ry="2" fill="#D9BF98" transform="rotate(23 400 300)"/><ellipse cx="776" cy="99" rx="6" ry="3" fill="#E9A98B" transform="rotate(156 400 300)"/><ellipse cx="49" cy="460" rx="7" ry="4" fill="#A9C2A0" transform="rotate(0 400 300)"/><ellipse cx="73" cy="199" rx="7" ry="2" fill="#A9C2A0" transform="rotate(145 400 300)"/><ellipse cx="318" cy="112" rx="7" ry="2" fill="#9DB1CF" transform="rotate(61 400 300)"/><ellipse cx="704" cy="49" rx="5" ry="3" fill="#E9A98B" transform="rotate(28 400 300)"/><ellipse cx="235" cy="294" rx="5" ry="3" fill="#D9BF98" transform="rotate(129 400 300)"/><ellipse cx="799" cy="326" rx="8" ry="3" fill="#D9BF98" transform="rotate(45 400 300)"/><ellipse cx="637" cy="81" rx="4" ry="2" fill="#E9A98B" transform="rotate(25 400 300)"/><ellipse cx="204" cy="261" rx="4" ry="2" fill="#D9BF98" transform="rotate(102 400 300)"/><ellipse cx="228" cy="111" rx="9" ry="5" fill="#A9C2A0" transform="rotate(103 400 300)"/><ellipse cx="617" cy="456" rx="4" ry="4" fill="#D9BF98" transform="rotate(97 400 300)"/><ellipse cx="210" cy="119" rx="8" ry="2" fill="#D9BF98" transform="rotate(76 400 300)"/><ellipse cx="745" cy="79" rx="6" ry="4" fill="#9DB1CF" transform="rotate(124 400 300)"/><ellipse cx="771" cy="73" rx="8" ry="4" fill="#D9BF98" transform="rotate(165 400 300)"/><ellipse cx="68" cy="531" rx="5" ry="3" fill="#A9C2A0" transform="rotate(15 400 300)"/><ellipse cx="343" cy="241" rx="7" ry="5" fill="#E9A98B" transform="rotate(64 400 300)"/><ellipse cx="223" cy="330" rx="5" ry="3" fill="#9DB1CF" transform="rotate(156 400 300)"/><ellipse cx="474" cy="548" rx="7" ry="4" fill="#9DB1CF" transform="rotate(159 400 300)"/><ellipse cx="419" cy="495" rx="7" ry="5" fill="#E9A98B" transform="rotate(74 400 300)"/><ellipse cx="18" cy="189" rx="4" ry="2" fill="#9DB1CF" transform="rotate(75 400 300)"/><ellipse cx="515" cy="531" rx="4" ry="5" fill="#E9A98B" transform="rotate(49 400 300)"/><ellipse cx="763" cy="212" rx="6" ry="5" fill="#D9BF98" transform="rotate(9 400 300)"/><ellipse cx="353" cy="479" rx="9" ry="3" fill="#A9C2A0" transform="rotate(36 400 300)"/><ellipse cx="105" cy="454" rx="6" ry="5" fill="#D9BF98" transform="rotate(19 400 300)"/><ellipse cx="210" cy="156" rx="7" ry="4" fill="#D9BF98" transform="rotate(162 400 300)"/><ellipse cx="381" cy="165" rx="7" ry="4" fill="#D9BF98" transform="rotate(121 400 300)"/><ellipse cx="538" cy="555" rx="5" ry="4" fill="#A9C2A0" transform="rotate(73 400 300)"/><ellipse cx="30" cy="474" rx="6" ry="4" fill="#A9C2A0" transform="rotate(62 400 300)"/><ellipse cx="532" cy="10" rx="4" ry="3" fill="#9DB1CF" transform="rotate(137 400 300)"/><ellipse cx="21" cy="169" rx="4" ry="2" fill="#9DB1CF" transform="rotate(119 400 300)"/><ellipse cx="363" cy="371" rx="8" ry="2" fill="#D9BF98" transform="rotate(47 400 300)"/><ellipse cx="244" cy="13" rx="6" ry="5" fill="#A9C2A0" transform="rotate(13 400 300)"/></svg>